<svg enable-background="new 0 0 720 720" viewBox="0 0 720 720" xmlns="http://www.w3.org/2000/svg"><path d="m-1.1-1.1h722.2v722.2h-722.2z" fill="#ff3a21"/><g fill="#fff"><path d="m71.3 196.6c-5.2-3.3-8.8-8.1-10.7-14.2s-2.9-13.8-2.9-23h25.5c0 7.9.7 13.7 2.2 17.3s4.4 5.4 8.7 5.4c3.4 0 5.9-1.1 7.5-3.4s2.6-5.4 3-9.3.6-9.5.6-16.9c0-8.4-.8-14.6-2.3-18.8-1.5-4.1-4.7-6.2-9.4-6.2-6.1 0-10 4.1-11.7 12.4h-22.8l1.9-78.2h63.4v22.6h-41.8l-1.5 30.5c1.6-1.9 4.3-3.5 8.2-4.8s8-2 12.4-2c9.4 0 16.5 3.8 21.2 11.4 4.8 7.6 7.1 18.2 7.1 32 0 10.9-1 19.9-2.9 27.1s-5.6 12.9-11 17-13.1 6.2-23 6.2c-9.3-.1-16.5-1.7-21.7-5.1z"/><path d="m247.5 110.5v7.3h-40.4v-7.3h17.4v-13h-12.5v-7.2h12.5v-10.7h-7.2c-1 3.4-2.3 6.5-3.6 9-1.6-1-5.1-2.7-6.9-3.5.7-1.2 1.3-2.4 2-3.8l-3.8 1.7c-.4-2-1.4-4.8-2.5-7.5v44.4h-7.7v-46.4c-.4 5.5-1.4 12.6-2.9 17.2l-5.7-2.1c1.6-4.3 2.7-11.6 3.2-16.9l5.5.8v-13.3h7.7v12.3l3.8-1.6c1.3 2.5 2.7 5.7 3.6 8.2 1.6-4.7 2.8-10.3 3.4-15.9l7.5 1c-.5 3.1-1 6.1-1.6 9h5.2v-12.6h7.7v12.7h13.3v7.3h-13.3v10.7h11.9v7.2h-11.9v13z"/><path d="m285.3 90s-.1 2-.1 3c-.6 15-1.2 21.2-2.9 23.3-1.3 1.7-2.6 2.3-4.5 2.6-1.6.3-4.3.3-7.2.3-.1-2.3-.9-5.3-2.1-7.3 2.3.3 4.4.3 5.4.3.9 0 1.4-.1 2-.8.8-1.1 1.4-4.9 1.8-14.4h-6.3c-1.3 10.1-4.5 18.1-13.8 23.2-.9-1.8-3-4.5-4.6-5.8 7.3-4 10-9.8 11.1-17.4h-9.1v-7h9.7c.1-1.4.1-2.7.2-4.1h7.3c-.1 1.4-.1 2.7-.2 4.1zm-1.6-5.4h-27v-22.6h27zm-7.5-15.8h-12.5v8.9h12.5zm21.5 34.9h-7.5v-36.6h7.5zm13.7-43.2v50.2c0 4.3-.8 6.4-3.3 7.7s-6.4 1.6-12 1.6c-.3-2.3-1.4-5.8-2.5-8 3.7.1 7.3.1 8.5.1s1.6-.4 1.6-1.5v-50.1z"/><path d="m379.7 98.5h-25.5v21.5h-8.1v-21.5h-25.3v-7.9h25.3v-19.7h-21.9v-7.7h51.7v7.7h-21.8v19.7h25.5v7.9zm-44.5-25.5c2.1 4.2 4.5 9.6 5.2 13.3l-7.5 2.3c-.7-3.4-2.7-9.2-4.7-13.5zm24.1 13.5c2.1-3.8 4.4-9.5 5.7-13.7l8.3 2.1c-2.3 5-5 10.3-7.2 13.6z"/><path d="m433.1 94.5v3.9h11v6.5h-11v7c0 3.8-.8 5.7-3.6 6.8-2.7 1.1-6.4 1.2-11.2 1.2-.5-2.2-1.8-5.2-2.8-7.2 3.3.1 7.2.1 8.3.1s1.4-.3 1.4-1v-6.9h-19.3c3.1 2.3 6.2 5.3 7.9 7.5l-6 4.8c-1.8-2.9-6-7-9.8-9.8l3.4-2.6h-12v-6.5h35.8v-3.9h-38.2v-6.6h25.4v-3.7h-18.9v-6.4h18.9v-3.1h3.9c-1.4-.8-2.8-1.8-3.8-2.3.8-.6 1.6-1.4 2.3-2.2h-8.7c.8 1.5 1.6 3 2 4.1l-6.6 2.7c-.5-1.8-1.8-4.5-3-6.8h-.6c-2 2.9-4.1 5.4-6 7.4-1.5-1.2-4.7-3.4-6.4-4.3 4.2-3.5 8.1-9.1 10.3-14.6l7.4 2c-.5 1.1-1 2.1-1.6 3.2h14.2v5.3c2.6-3 4.7-6.8 6-10.5l7.4 1.9c-.3 1-.8 2.2-1.4 3.3h17.9v6.3h-10.8c1 1.5 2 3 2.5 4.1l-6.6 2.8c-.7-1.8-2.3-4.6-4-6.9h-2.5c-1.2 1.9-2.5 3.6-3.8 5v2.6h19.7v6.4h-19.7v3.7h25.5v6.6h-12.9z"/><path d="m525.7 271.8h-90.2c-.6 0-1.1.5-1.1 1.1v30c0 .6.5 1.2 1.1 1.2h35.9l-39.9 39.9c-20.1-15.8-45.3-25.2-72.8-25.2-65.1 0-118.1 53-118.1 118.1 0 60 44.9 109.6 102.9 117.1v34.5h-35.6c-.7 0-1.2.5-1.2 1.1v32.1c0 .6.5 1.1 1.2 1.1h35.6v34c0 .6.5 1.1 1.1 1.1h32.1c.6 0 1.2-.5 1.2-1.1v-34h35.6c.6 0 1.1-.5 1.1-1.1v-32.1c0-.6-.5-1.1-1.1-1.1h-35.6v-35.1c56-9.2 98.9-57.9 98.9-116.5 0-25.3-8-48.7-21.6-67.9l39.3-39.3v33.5c0 .6.5 1.1 1.2 1.1h30c.6 0 1.2-.5 1.2-1.1v-90.2c0-.7-.6-1.2-1.2-1.2m-167 251.9c-47.9 0-86.9-39-86.9-86.9s39-86.9 86.9-86.9 86.9 39 86.9 86.9c.1 47.9-38.9 86.9-86.9 86.9"/><path d="m411.8 401.1h-105.4c-.6 0-1.1.5-1.1 1v25.5c0 .6.5 1 1.1 1h105.4c.7 0 1.2-.4 1.2-1v-25.5c0-.5-.5-1-1.2-1"/><path d="m411.8 446.7h-105.4c-.6 0-1.1.5-1.1 1.1v25.5c0 .6.5 1 1.1 1h105.4c.7 0 1.2-.5 1.2-1v-25.5c0-.6-.5-1.1-1.2-1.1"/></g></svg>