<svg enable-background="new 0 0 720 720" viewBox="0 0 720 720" xmlns="http://www.w3.org/2000/svg"><path d="m-1.1-1.1h722.2v722.2h-722.2z" fill="#dda83a"/><g fill="#fff"><path d="m57.2 180.9 33.3-51.5 2-3.1c4.3-6.5 7.5-11.9 9.5-16.2 2-4.4 3.1-9.2 3.1-14.4 0-4.4-.8-7.8-2.5-10.1s-4.1-3.5-7.3-3.5c-4.8 0-8 1.8-9.9 5.4-1.8 3.6-2.7 8.6-2.7 15v6.3h-25.5v-6.8c0-12.9 3-23.1 9.1-30.7 6-7.5 15.5-11.3 28.4-11.3 11.9 0 20.9 3.1 27.1 9.4s9.3 15.2 9.3 26.8c0 5.2-.8 10.1-2.4 14.8-1.6 4.6-3.5 8.8-5.6 12.4-2.2 3.6-5.5 8.8-10 15.5l-26.5 39.8h41v20.7h-70.4z"/><path d="m223.5 87.6c-.4.3-.8.6-1.3.8 6.8 2.5 17.9 4.9 26.5 6-1.6 1.5-3.6 4.3-4.7 6.1-8.6-1.6-20.1-5.1-27.6-8.8-7.9 4-17.4 7.1-25.9 9-.9-1.7-2.5-4.2-4.2-5.9 10.9-2 24.3-6 31.5-11zm-27.6-6.5h-6.9v-12.1h24.5v-2.2h-20.2v-5.5h48v5.5h-20.3v2.2h25v12.1h-7v-7.3h-17.8v9.8h-7.6v-9.8h-17.7zm45 21.7c-3.6 3.6-9.4 7.1-14.7 9.9 2.7.9 5.2 1.8 7.2 2.5l-3.1 5.6c-6.3-2.9-18.9-6.9-28.2-9.2l2.9-4.7c3.6.8 8 1.8 12.3 3 3.3-1.3 7-2.9 10.3-4.7h-32v-5.5h20.3c-1.2-1.3-2.7-2.7-4-3.8l4.5-3.3c2.1 1.6 4.7 3.8 6 5.4l-2.1 1.7h14.8l1-.4zm-44.3-20.2h15v4.4h-15zm14.9-6.5v4.2h-13.5v-4.2zm25.2 0v4.2h-13.6v-4.2zm-13.5 6.5h15.1v4.4h-15.1z"/><path d="m264.5 75.1c-1.5 5.2-3.4 9.9-5.5 13.6-1.2-1.4-4.1-4-5.8-5.2 3.6-5.8 5.9-15.1 7-24.2l7.3 1.4c-.4 2.5-.8 4.9-1.3 7.4h8.1l1.2-.3 5.3 1.4c-1.4 5.1-3.2 10.7-5.1 14.4l-6.2-2c.7-1.8 1.5-4 2.2-6.5zm11.6 24.6c.5 2.1 1.7 5.1 2.6 6.6-12.2 9.5-14.4 11.3-15.5 12.9-.8-1.6-3-4.2-4.2-5.3 1.4-1.2 3.4-4 3.4-7.6v-23.7h7.5v21.6zm31.5 12.2c.3 0 .6-.1.8-.4.3-.3.3-1 .4-2.4.1-1.3.2-4.5.2-8.4 1.5 1.3 3.7 2.5 5.7 3.1-.1 3.5-.4 8.1-.8 10-.3 2-1 3.2-2 4.1-1 .8-2.6 1.1-4 1.1h-3.6c-1.5 0-3.3-.5-4.5-1.7-1.2-1.3-1.7-2.9-1.7-8.5v-38.5h-7.6v13.7c0 11-1.5 26.7-11 36.1-1.2-1.5-4.5-4.2-6.2-5.2 8.6-8.5 9.4-21.3 9.4-31v-21h23.3v45.8c0 1.6 0 2.5.2 2.9.1.3.3.4.6.4h.8z"/><path d="m379.2 88.3c-2.1 6.6-5.1 12.7-8.6 18 .9 4.1 2 6.5 3.3 6.5.9 0 1.4-2.5 1.6-8.3 1.4 1.8 3.5 3.3 5.1 4.1-1 8.7-2.9 11.3-7.7 11.3-3.3 0-5.7-2.6-7.5-7-2 2.3-4.2 4.3-6.6 6.1-.9-1.4-2.9-3.8-4.4-5.3-.2 2.3-1 3.7-2.7 4.7-2.1 1.2-5.3 1.4-9.6 1.4-.3-2-1.3-5.2-2.3-7.3 2.7.1 5.3.1 6.2.1s1.2-.3 1.2-1.2v-10.7l-6.2 1.4-1.4-7.2c2.1-.4 4.8-.8 7.6-1.4v-8.9h-6.8v-7h6.8v-7.6c-1.6.4-3.1.8-4.5 1.1-1.6 4.6-3.4 9.4-5.2 12.5l-5.7-1.8c.8-1.7 1.8-4 2.7-6.5h-4.9c-1.5 5-3.3 9.6-5.5 13-1-1.2-3.8-3.6-5.4-4.8 3.7-5.8 6-15.1 7.3-24.2l6.9 1.3c-.5 2.5-1 5.1-1.6 7.7h6l1.1-.3 3.1.9c-.5-1.2-.9-2.4-1.4-3.2 5.4-1.4 11.5-3.5 15.1-5.5l5.1 4.7-.1-5.1h7.3c-.1 6.1-.1 12.2.1 18h11.8v7h-11.5c.3 4 .5 7.7.9 11.1 1.4-2.9 2.6-5.9 3.6-9.1zm-39 16c.3 2 1.1 5.1 1.8 6.6-10.8 6.6-12.8 8.1-14 9.4-.6-1.8-2.6-5.1-3.9-6.6 1.3-1 3-3.2 3-6v-22.3h7.2v22.3zm14.5 7.4c0 .6 0 1.2-.1 1.6 3.2-2.3 6.1-5 8.6-8.3-1.1-5.7-1.8-12.5-2.3-20.2h-6.3v7.7l4.9-1 .6 6.5-5.5 1.2v12.5zm0-33.8h6c-.1-4-.3-8-.3-12-1.8.7-3.8 1.5-5.8 2.1v9.9zm18.2-2.7c-.8-3.1-3-7.9-5.1-11.4l6-2.2c2.2 3.4 4.6 8.1 5.5 11.1z"/><path d="m286.6 613.7v10.2.2.2c.1 2.5 2.2 4.5 4.7 4.6h.1.1 119.7.1.1c2.6 0 4.7-2.2 4.7-4.8v-11.5c67.4-22.1 117.8-76.7 128.9-143.2 0-.1 0-.3.1-.4 0-.2.1-.4.1-.7 0-2.7-2.2-4.8-4.8-4.8h-379.2-2.2c-2.7 0-4.9 2.2-4.9 4.8l.3 2.2c11.6 67.1 63.5 122 132.2 143.2"/><path d="m416 300.7c-1.6 2.2-38.4 55.3.8 98.2 18 19.7 16.4 37.1 11.3 48.8h25.2c5.1-17.3 3-39.1-17.4-61.4-28.9-31.6.4-74.3.8-75 3.5-4.9 1.6-11.2-4.1-14.1s-13.1-1.4-16.6 3.5"/><path d="m352.3 447.6h25.2c5.1-17.3 3-39-17.5-61.4-28.9-31.6.3-74.3.8-75 3.4-4.9 1.6-11.1-4.1-14.1-5.7-2.9-13.1-1.4-16.6 3.5-1.6 2.2-38.5 55.3.8 98.2 18.1 19.7 16.5 37.1 11.4 48.8"/><path d="m264.3 300.7c-1.6 2.2-38.4 55.3.8 98.2 18 19.7 16.4 37.1 11.3 48.8h25.2c5.1-17.3 3-39-17.5-61.4-28.9-31.6.4-74.3.8-75 3.4-4.9 1.6-11.1-4.1-14.1s-13.1-1.4-16.5 3.5"/></g></svg>