<svg enable-background="new 0 0 720 720" viewBox="0 0 720 720" xmlns="http://www.w3.org/2000/svg"><path d="m-.1-1.1h720.2v722.2h-720.2z" fill="#e5243b"/><g fill="#fff"><path d="m62.7 88.9c-1.2.7-4.9 2.1-10.9 4.2-4.8 1.6-7.8 2.7-9 3.2v-19.4c3.9-1.5 8.5-3.7 14-6.8s9.4-5.8 11.6-8.3h20.6v137.7h-26.3z"/><path d="m194.9 110.8c2.6 0 3-1.4 3.4-9.7 1.7 1.4 5.2 2.7 7.4 3.2-.9 11.1-3.1 14-10.1 14h-9.7c-8.2 0-10.3-2.5-10.3-10.3v-16.7c-3.1 11.6-9.8 22.2-25.4 28.6-1.1-2.1-3.2-4.9-5.2-6.5 14.3-5.5 20.3-14.2 23-24.1h-22v-7.7h23.4c.4-3.6.6-7.3.7-10.9h-20.3v-7.6h51.7v7.6h-23.4c-.2 3.6-.4 7.3-.8 10.9h27.8v7.7h-21.5v18.5c0 2.5.5 2.9 3.3 2.9h8z"/><path d="m251.9 58.8c4.4 4.8 12.9 9.6 20.3 12.2-1.7 1.4-4 4.2-5.1 6-2.5-1.1-5.3-2.6-8-4.3-.6 6.6-1.6 9.7-3.1 11.1-1.4 1.2-3.1 1.6-5 1.8-1.8.1-5.1.1-8.5 0-.1-1.6-.8-3.8-1.6-5.2 2.8.3 5.5.3 6.6.3 1 0 1.6-.1 2.1-.5.6-.6 1-2 1.5-4.6h-9.9c-2.9 6.2-8.5 9.6-15.9 11.8h37.2v20.6h-8.1v-13.4h-25.9v14h-7.8v-20c-1.1.3-2.3.5-3.4.6-.6-1.9-2.5-5-3.8-6.6 8.9-.8 16.1-2.7 19-7.1h-8.5v-2.3c-2.3 1.4-4.6 2.7-6.8 3.8-1.4-1.5-4.2-4.2-5.8-5.5 7.5-2.7 14.9-7.4 19-12.8l7.2 2.5c-2.3 3.1-5.1 5.9-8.4 8.4h25.7c-3.4-2.6-6.6-5.4-8.9-8.2zm-6.7 41.6c0 6.4-2.9 14.8-26.6 20-1-1.7-3.4-4.6-5.3-6 22-4 23.8-10.1 23.8-14.2v-4.5h8.1zm2.2 5.4c6.7 2.2 17.2 5.8 22.6 8.1l-3.9 6.4c-5-2.4-15.3-6.4-22.4-9z"/><path d="m336.1 65.3v13.2h-8.1v-6.6h-40.4v7.3h-7.8v-13.9h23.9c-.6-1.6-1.2-3.1-1.9-4.4l8.3-2.3c1 2.1 2.3 4.6 3.1 6.7zm-4.5 25.4s-.1 2.1-.3 3.2c-1 14.2-2.1 20.3-4.2 22.7-1.7 1.9-3.6 2.5-6.2 2.7-2.1.3-5.8.3-9.5.1-.2-2.3-1.2-5.4-2.7-7.5 3.6.3 7.2.3 8.8.3 1.2 0 2-.1 2.7-.7 1.2-1.1 2.1-5.1 2.8-13.5h-15.4c-2.7 9.4-8.6 17.4-22.4 22.4-1-2.1-3.1-5.2-4.9-6.9 11-3.6 16.1-9 18.6-15.5h-16.3v-7.3h18.2c.4-2.7.6-5.5.8-8.3h8.4c-.2 2.9-.5 5.6-.8 8.3zm-25.7-14.3c-5.7 5.4-13.4 10.5-20.2 13.2l-5-5.7c6-2.2 13.7-6.4 18.9-11.1zm11.1-3.5c5.8 3.2 13.9 8.3 18 12l-6 4.4c-3.6-3.4-11.5-8.9-17.5-12.5z"/><path d="m556 343.4c0-11.1 9-20.1 20.1-20.1s20.1 9 20.1 20.1-9 20.1-20.1 20.1-20.1-9-20.1-20.1"/><path d="m599.5 371.2c13.6 1.2 24.3 12.7 24.3 26.7v6.7 2.9 46.1c0 4.3-3.5 7.8-7.8 7.8s-7.8-3.5-7.8-7.8v-47.8c0-1.8-.5-4.2-3.8-4.2-2.3 0-2.7 2.4-2.8 3.9v143.3c0 6.2-5 11.2-11.2 11.2s-11.2-5-11.2-11.2v-82.6c0-.9-.3-3.3-3.2-3.3-2.9 0-3.2 2.4-3.2 3.3v82.6c0 6.2-5 11.2-11.2 11.2s-11.2-5-11.2-11.2v-143.3c-.1-1.5-.6-3.9-2.8-3.9-3.3 0-3.8 2.4-3.8 4.2v47.8c0 4.3-3.5 7.8-7.8 7.8s-7.8-3.5-7.8-7.8v-46.1-2.9-6.7c0-14 10.7-25.4 24.3-26.7.4-.1.9-.1 1.5-.1h22 22c.6 0 1 .1 1.5.1"/><path d="m436.5 353.9c0-10.5-8.5-19-19-19s-19 8.5-19 19 8.5 19 19 19 19-8.5 19-19"/><path d="m379.2 397-15.8 51.5s-2.8 9.4 5.2 11.8 10.4-6.9 10.4-6.9l12.7-43s.7-3.3 3.2-2.6 1.6 4.2 1.6 4.2l-22.2 80.5h20.6v57.7c0 5.5 4.4 9.9 9.9 9.9s9.9-4.4 9.9-9.9v-57.7h2.8 2.8v57.7c0 5.5 4.4 9.9 9.9 9.9s9.9-4.4 9.9-9.9v-57.7h20.6l-22.2-80.5s-.9-3.5 1.5-4.2c2.5-.7 3.2 2.6 3.2 2.6l12.7 43s2.4 9.2 10.4 6.9c8-2.4 5.2-11.8 5.2-11.8l-15.7-51.5s-5.6-14.9-18.2-14.9h-20.1-20.2c-12.4 0-18.1 14.9-18.1 14.9"/><path d="m322.6 353.9c0-10.5-8.5-19-19-19s-19 8.5-19 19 8.5 19 19 19 19-8.5 19-19"/><path d="m265.3 397-15.8 51.5s-2.8 9.4 5.2 11.8 10.4-6.9 10.4-6.9l12.7-43s.7-3.3 3.2-2.6 1.5 4.2 1.5 4.2l-22.2 80.5h20.7v57.7c0 5.5 4.5 9.9 9.9 9.9 5.5 0 9.9-4.4 9.9-9.9v-57.7h2.8 2.8v57.7c0 5.5 4.4 9.9 9.9 9.9s9.9-4.4 9.9-9.9v-57.7h20.6l-22.2-80.5s-.9-3.5 1.5-4.2c2.5-.7 3.2 2.6 3.2 2.6l12.7 43s2.4 9.2 10.4 6.9c8-2.4 5.2-11.8 5.2-11.8l-15.7-51.5s-5.6-14.9-18.2-14.9h-20.1-20.2c-12.4 0-18.1 14.9-18.1 14.9"/><path d="m500.4 460.4c8.8 0 15.8-7.1 15.8-15.8 0-8.8-7.1-15.8-15.8-15.8s-15.8 7.1-15.8 15.8 7.1 15.8 15.8 15.8"/><path d="m462.5 509.5c-.8 1.9-1.4 5.8 2.3 7.5 4.4 2 6.8-2.2 6.8-2.2l8.6-27.4s1.5-1.8 1.5.1v64.6c0 4.5 3.6 8.1 8.1 8.1s8.1-3.6 8.1-8.1v-25.5s-.5-3.6 2.4-3.6 2.5 3.6 2.5 3.6v25.5c0 4.5 3.6 8.1 8.1 8.1s8.1-3.6 8.1-8.1v-64.6c0-1.9 1-.5 1-.5l6.7 18.8s2.9 8.4 3.8 8.8c3 1.3 6.6-.2 7.8-3.2.8-2 .5-4.2-.6-5.8l.1-.1c-.2-.6-10.1-24.9-11.2-28.3-3.6-10.4-10.1-10.3-16.3-10.5-6.3-.1-10 0-10 0s-4-.2-12.3.1c-8.2.3-10.9 4.5-20 27.9-1.1 3.3-5.5 14.2-5.5 14.8z"/><path d="m152.8 343.4c0-11.1-9-20.1-20.1-20.1s-20.1 9-20.1 20.1 9 20.1 20.1 20.1 20.1-9 20.1-20.1"/><path d="m109.2 371.2c-13.6 1.2-24.3 12.7-24.3 26.7v6.7 2.9 46.1c0 4.3 3.5 7.8 7.8 7.8s7.8-3.5 7.8-7.8v-47.8c0-1.8.5-4.2 3.8-4.2 2.3 0 2.7 2.4 2.8 3.9v143.3c0 6.2 5 11.2 11.2 11.2s11.2-5 11.2-11.2v-82.6c0-.9.3-3.3 3.2-3.3 2.9 0 3.2 2.4 3.2 3.3v82.6c0 6.2 5 11.2 11.2 11.2s11.2-5 11.2-11.2v-143.3c.1-1.5.6-3.9 2.8-3.9 3.3 0 3.8 2.4 3.8 4.2v47.8c0 4.3 3.5 7.8 7.8 7.8s7.8-3.5 7.8-7.8v-46.1-2.9-6.7c0-14-10.7-25.4-24.3-26.7-.5-.1-.9-.1-1.5-.1h-22-21.9c-.6 0-1.1.1-1.6.1"/></g><path d="m91.7 461.6-17.8 94.6" fill="none" stroke="#fff" stroke-linecap="round" stroke-miterlimit="10" stroke-width="8.5437"/><path d="m190 452.1c-1-1.6-2.8-2.7-4.9-2.7-3.2 0-5.8 2.6-5.8 5.8 0 .9.6 2.5.6 2.5l16 28.9s1 2 1 3.8v62c0 4.3 3.5 7.8 7.8 7.8s7.8-3.5 7.8-7.8v-24.5s-.4-3.5 2.4-3.5 2.4 3.5 2.4 3.5v24.5c0 4.3 3.5 7.8 7.8 7.8s7.8-3.5 7.8-7.8v-62c0-1.8 1-3.8 1-3.8l14.8-26.7s1.8-3.8 1.8-4.7c0-3.2-2.6-5.8-5.8-5.8-2.1 0-3.9 1.1-4.9 2.7h-.1c-.5.4-7.8 13.6-10.3 16-2.6 2.6-4.9 2.3-4.9 2.3h-9.6-9.6s-2.3.3-4.9-2.3c-2.5-2.5-9.9-15.7-10.4-16z" fill="#fff"/><path d="m214.8 460.4c8.8 0 15.8-7.1 15.8-15.8 0-8.8-7.1-15.8-15.8-15.8-8.8 0-15.8 7.1-15.8 15.8s7.1 15.8 15.8 15.8" fill="#fff"/><path d="m214.8 482.6 17.9 13 8.5 31.3h-26.4-26.4l8.6-31.3z" fill="#fff"/></svg>