<svg enable-background="new 0 0 720 720" viewBox="0 0 720 720" xmlns="http://www.w3.org/2000/svg"><path d="m-1.1-1.1h722.2v722.2h-722.2z" fill="#fd9d24"/><g fill="#fff"><path d="m61.8 88.9c-1.2.7-4.8 2.1-10.8 4.3-4.8 1.6-7.8 2.7-9 3.2v-19.5c3.9-1.5 8.5-3.7 14-6.8s9.4-5.8 11.6-8.3h20.6v137.7h-26.4z"/><path d="m119.5 88.9c-1.2.7-4.9 2.1-10.9 4.2-4.8 1.6-7.8 2.7-9 3.2v-19.4c3.9-1.5 8.5-3.7 14-6.8s9.4-5.8 11.6-8.3h20.6v137.7h-26.3z"/><path d="m267.6 71.4h-7.5v38.7c0 4.7-1.1 7-4.2 8.3-3.2 1.3-8.1 1.4-14.7 1.4-.5-2.3-2-6.1-3.2-8.2 4.6.3 10.3.2 11.8.2s2.1-.5 2.1-1.8v-38.6h-43v-7.8h58.6v7.8zm-45 32.4v4.9h-7.6v-30h27.6v25.2h-20zm0-17.8v10.4h12.4v-10.4z"/><path d="m295.1 93.7c-2 .6-4 1.2-6.1 1.8v15.9c0 3.6-.7 5.5-2.7 6.7-1.9 1.2-4.7 1.5-8.9 1.4-.2-1.9-1-5.1-2-7.2 2.4.1 4.6.1 5.4.1s1.1-.3 1.1-1.1v-13.7l-6.7 2-1.7-7.4c2.3-.6 5.2-1.3 8.4-2.1v-11.4h-7.3v-7.1h7.3v-12.3h7.1v12.2h5.5v7.1h-5.5v9.6l5.1-1.4zm32.3-7.4v5.1h7.2v7h-7.2v13.3c0 3.9-.7 5.8-3.2 7-2.4 1.1-5.8 1.2-10.5 1.2-.3-2.1-1.3-5.2-2.2-7.3 2.9.1 6.3.1 7.3.1.9 0 1.2-.2 1.2-1.1v-13.1h-23.9v-7h23.9v-5.1h-24.5v-7h16.1v-5.7h-13.3v-7h13.3v-7.1h7.3v7.1h13.1v7h-13v5.7h16v7h-7.6zm-21.6 12.4c2.7 3.2 5.9 7.9 7.3 11.1l-6.6 3.8c-1.2-3.2-4.2-7.9-6.8-11.4z"/><path d="m361.4 90.7c-.1 2 0 4.9.3 6.4-14.8 4-17.4 5-18.8 6.1-.3-1.4-1.4-4.5-2.2-6.2 1.6-.4 3-1.9 4.9-4.3 1-1.1 2.8-3.6 4.9-6.8-5.6.7-7.1 1-8.1 1.5-.3-1.4-1.4-4.7-2.3-6.5 1.3-.3 2.4-1.8 3.7-3.9 1.5-2 5.9-10.2 8.1-17.8l6.6 3.1c-2.3 6-5.9 12.4-9.4 17.6l5.3-.4c1.2-2.3 2.4-4.6 3.4-6.9l5.7 3.5c-2.9 5.7-6.6 11.4-10.4 16.6zm1.1 17.4c-6.9 2.9-14.2 5.9-20.1 8.2l-1.7-7.2c5.1-1.6 12.9-4.4 20.5-7.2zm21.4-4.8c-2.5 6.2-7.7 12.3-17.9 16.8-.8-1.6-3-4.3-4.5-5.7 7.5-3.1 11.8-7 14.4-11.1h-12.9v-6.7h7.9c-1.8-1.8-4.9-3.9-7.4-5.3l3.4-3.7c2.8 1.5 6.5 3.9 8.3 5.6l-2.9 3.4h6c.6-2.4.7-4.7.7-6.8v-2.4l-3 3.7c-1.6-1.6-5.1-3.9-7.7-5.3l3.1-3.6c2.7 1.2 5.8 3.1 7.7 4.7v-3.8h7.1v7c0 2.1-.1 4.3-.5 6.6h13.5v6.7h-15.3zm6.1-15.3c.7-1.8 1.4-4.2 2-6.8h-27.6v-6.5h13.3v-4h-11v-6.4h11v-5h7.5v5h11.2v6.4h-11.2v4h9l1.1-.2 4.9 1c-1.2 4.9-2.9 10.3-4.3 13.8zm-2.5 16.2c4.7 3.1 10.7 7.8 13.7 11.1l-4.9 4.7c-2.7-3.3-8.5-8.3-13.3-11.7z"/><path d="m267.8 164.9c-2.1 8.5-4.9 16.1-8.9 22.3 1 4.3 2.2 6.8 3.4 6.8 1 0 1.5-3.1 1.7-9.7 1.4 1.6 3.6 3.3 5.4 4-1 10-3 12.8-8 12.8-3.2 0-5.7-2.7-7.5-7.2-2.7 3.1-5.7 5.8-9.1 8.1-1-1.3-3.8-4-5.4-5.1 4.8-2.9 8.8-6.5 12.1-11-1.7-7.9-2.6-18-3.1-28.7h-12.7v7h11.6s0 1.8-.1 2.6c-.2 14.5-.5 20.3-1.8 22-1 1.4-2 2-3.6 2.3-1.3.3-3.4.3-5.6.3-.2-2-.7-4.5-1.6-6.1-1 6.2-3.1 12.4-7.3 16.8-1-1.3-4-3.8-5.6-4.7 2.6-2.9 4.3-6.5 5.2-10.1-5.7 2.3-11.8 4.9-16.8 6.9l-2.5-7.7c2-.5 4.2-1.3 6.8-2.1v-20.5h-5.7v-7.1h5.7v-14.6h7.2v14.6h5.1v7.1h-5.1v17.9l5-1.8.9 4.7c.9-4.4 1-9 1-12.9v-21.6h19.6c-.1-3.1-.1-6-.1-9h7.3c-.1 3.1-.1 6 0 9h5.1c-1.3-2-3.2-4.4-4.9-6.2l5.3-3.1c2.4 2.3 5.1 5.5 6.3 7.6l-2.7 1.7h3.6v7h-12.4c.3 6.8.8 13.3 1.5 18.8 1.6-3.8 2.9-7.9 3.8-12.4zm-32.1 5.6v1.3c0 4-.2 8.7-1 13.3 1.6.2 2.9.2 3.6.2s1.2-.2 1.6-.8c.6-1 .8-4.4.9-14z"/><path d="m308.4 157.5v7.3h20.9v21.9c0 3.8-.8 6-3.5 7.1-2.7 1.2-6.4 1.3-11.4 1.3-.3-2.3-1.5-5.5-2.6-7.6 3.2.2 7.1.2 8.1.1 1.1 0 1.4-.3 1.4-1.1v-14.2h-12.9v29.3h-8.1v-29.3h-12v22.8h-7.8v-30.4h19.8v-7.3h-25.3v-7.4h26.1c-1-2.3-2.2-5-3.3-7.2l7.7-2.4c1.6 3 3.8 6.9 4.9 9.6h24v7.5z"/><path d="m360.8 168.8c2.6 2.6 8.5 9.4 9.9 11.2l-4.4 6.4c-1.2-2.2-3.3-5.5-5.5-8.5v24h-7.8v-23.1c-2.6 6.1-5.7 11.7-9.1 15.5-.7-2.3-2.6-5.3-3.9-7.3 4.4-4.7 8.6-12.2 11.1-19.3h-9.7v-7.2h11.6v-8.5c-3.2.5-6.3 1-9.3 1.4-.3-1.8-1.2-4.4-2.1-6 8.5-1.2 17.9-3.2 23.9-5.6l5 6c-2.9 1-6.2 2-9.7 2.7v9.9h9.4v7.2h-9.4zm37.1-21.5v51h-8v-4.7h-10.4v5.1h-7.6v-51.5h26zm-8 39v-31.5h-10.4v31.5z"/><path d="m428.5 182.9c-1.1-1.7-2.9-4.1-4.7-6.3v25.4h-7.6v-24c-2.5 2.2-4.9 4.2-7.4 5.7-.5-2.1-2-6.4-2.9-7.9 6.5-3.6 12.8-9.9 16.7-16.8h-14.8v-7h11.4c-1.2-2.4-3.3-5.6-5.3-8l6.1-3.2c2.3 2.5 4.7 5.9 5.9 8.2l-5.1 3h6l1.3-.3 4.1 3c-1.8 4.7-4.5 9.4-7.5 13.6 2.7 2.3 7.3 6.9 8.6 8.1zm38.9 9.3v7.7h-37.5v-7.7h15.7v-24.1h-12.8v-7.5h12.8v-19h8v19h12.3v7.5h-12.3v24.1z"/><path d="m533 192.7v7.4h-56.6v-56h54.9v7.4h-47.3v41.2zm-12.1-3c-3-3.5-7.7-8-12.9-12.7-5.3 5.1-11 9.4-16.6 12.9-1.3-1.6-4.2-4.6-5.9-6 5.9-3.1 11.6-7.2 16.8-11.9-4.8-4.2-9.8-8.3-14.2-11.7l5.4-4.7c4.2 3.3 9.2 7.1 14.1 11.2 3.9-4.2 7.2-8.6 9.9-13.2l7.3 2.9c-3.2 5.3-7.2 10.4-11.5 15.1 5.4 4.5 10.3 8.9 13.5 12.5z"/><path d="m122.1 549.6h1.1 108c1.5 0 2.7-1.2 2.7-2.7 0-.7-.3-1.3-.7-1.8l-.2-.1-54.3-70.2-.5-.6c-.5-.5-1.2-.9-2-.9-.7 0-1.3.3-1.8.7l-.3.4-.5.6-53 69.5-.8 1c-.3.4-.5.9-.5 1.5.1 1.4 1.3 2.6 2.8 2.6z"/><path d="m230.9 559.5h-109.4c-1.5 0-2.7 1.2-2.7 2.7v85.6c0 1.5 1.2 2.7 2.7 2.7h35.2v-53.8c0-1.5 1.2-2.7 2.7-2.7h32.7c1.5 0 2.7 1.2 2.7 2.7v53.8h36.1c1.5 0 2.7-1.2 2.7-2.7v-85.6c-.1-1.5-1.3-2.7-2.7-2.7z"/><path d="m608.8 537.1h-108.3c-1.5 0-2.6 1.1-2.6 2.6v109.3c0 1.4 1.2 2.6 2.6 2.6h108.2c1.5 0 2.7-1.2 2.7-2.6v-109.3c0-1.5-1.2-2.6-2.6-2.6m-59.2 71.3c0 1.4-1.2 2.6-2.6 2.6h-32.3c-1.5 0-2.7-1.2-2.7-2.6v-19.6c0-1.4 1.2-2.6 2.7-2.6h32.3c1.5 0 2.6 1.1 2.6 2.6zm0-36.3c0 1.4-1.2 2.6-2.6 2.6h-32.3c-1.5 0-2.7-1.2-2.7-2.6v-19.7c0-1.4 1.2-2.6 2.7-2.6h32.3c1.5 0 2.6 1.2 2.6 2.6zm49.4 36.3c0 1.4-1.2 2.6-2.7 2.6h-32.3c-1.5 0-2.6-1.2-2.6-2.6v-19.6c0-1.4 1.2-2.6 2.6-2.6h32.3c1.5 0 2.7 1.1 2.7 2.6zm0-36.3c0 1.4-1.2 2.6-2.7 2.6h-32.3c-1.5 0-2.6-1.2-2.6-2.6v-19.7c0-1.4 1.2-2.6 2.6-2.6h32.3c1.5 0 2.7 1.2 2.7 2.6z"/><path d="m357.2 283.4h-105.9c-1.4 0-2.6 1.2-2.6 2.6v362c0 1.4 1.2 2.6 2.6 2.6h105.9c1.4 0 2.6-1.2 2.6-2.6v-362c0-1.4-1.2-2.6-2.6-2.6m-63 325.9c0 .8-.6 1.4-1.4 1.4h-24.2c-.8 0-1.4-.6-1.4-1.4v-27c0-.8.6-1.4 1.4-1.4h24.2c.8 0 1.4.6 1.4 1.4zm0-62c0 .8-.6 1.4-1.4 1.4h-24.2c-.8 0-1.4-.6-1.4-1.4v-27c0-.8.6-1.4 1.4-1.4h24.2c.8 0 1.4.6 1.4 1.4zm0-62.1c0 .8-.6 1.4-1.4 1.4h-24.2c-.8 0-1.4-.6-1.4-1.4v-27c0-.8.6-1.4 1.4-1.4h24.2c.8 0 1.4.6 1.4 1.4zm0-62.1c0 .8-.6 1.4-1.4 1.4h-24.2c-.8 0-1.4-.6-1.4-1.4v-27c0-.8.6-1.4 1.4-1.4h24.2c.8 0 1.4.6 1.4 1.4zm0-62c0 .8-.6 1.4-1.4 1.4h-24.2c-.8 0-1.4-.6-1.4-1.4v-27c0-.8.6-1.4 1.4-1.4h24.2c.8 0 1.4.6 1.4 1.4zm47.6 248.2c0 .8-.6 1.4-1.4 1.4h-24.2c-.8 0-1.4-.6-1.4-1.4v-27c0-.8.6-1.4 1.4-1.4h24.2c.8 0 1.4.6 1.4 1.4zm0-62c0 .8-.6 1.4-1.4 1.4h-24.2c-.8 0-1.4-.6-1.4-1.4v-27c0-.8.6-1.4 1.4-1.4h24.2c.8 0 1.4.6 1.4 1.4zm0-62.1c0 .8-.6 1.4-1.4 1.4h-24.2c-.8 0-1.4-.6-1.4-1.4v-27c0-.8.6-1.4 1.4-1.4h24.2c.8 0 1.4.6 1.4 1.4zm0-62.1c0 .8-.6 1.4-1.4 1.4h-24.2c-.8 0-1.4-.6-1.4-1.4v-27c0-.8.6-1.4 1.4-1.4h24.2c.8 0 1.4.6 1.4 1.4zm0-62c0 .8-.6 1.4-1.4 1.4h-24.2c-.8 0-1.4-.6-1.4-1.4v-27c0-.8.6-1.4 1.4-1.4h24.2c.8 0 1.4.6 1.4 1.4z"/><path d="m611.3 526.1c0 1.2-1 2.2-2.2 2.2h-108.9c-1.2 0-2.2-1-2.2-2.2v-21.8c0-1.2 1-2.2 2.2-2.2h108.9c1.2 0 2.2 1 2.2 2.2z"/><path d="m485.1 351.8c-.4-1.2-1.4-2-2.7-2-.6 0-1.1.2-1.5.5-.1 0-.1.1-.2.1l-.9 1.1-104.1 132-.5.6c-.5.5-.9 1.3-.9 2.1v.2 162.1c0 1.4 1.2 2.6 2.6 2.6h105.8c1.4 0 2.6-1.2 2.6-2.6v-295.6c.1-.4 0-.8-.2-1.1zm-43.8 71.7.7-.9c7.1-9.1 19.1-23.9 25-31.1l.8-.9c.6-.7 1.4-1.1 2.3-1.1 1.4 0 2.6 1 2.9 2.4v1.2 1 31.3c0 1.6-1.3 2.9-2.9 3h-.1-.1-24.7-1.3-.1-.1c-1.6-.1-2.9-1.4-2.9-3-.1-.8.1-1.4.5-1.9zm-16.5 184.9c0 1.4-1.2 2.6-2.6 2.6h-31.6c-1.4 0-2.6-1.2-2.6-2.6v-19.8c0-1.4 1.2-2.6 2.6-2.6h31.6c1.4 0 2.6 1.2 2.6 2.6zm0-36.5c0 1.4-1.2 2.6-2.6 2.6h-31.6c-1.4 0-2.6-1.2-2.6-2.6v-19.8c0-1.4 1.2-2.6 2.6-2.6h31.6c1.4 0 2.6 1.1 2.6 2.6zm0-36.5c0 1.4-1.2 2.6-2.6 2.6h-31.6c-1.4 0-2.6-1.2-2.6-2.6v-19.8c0-1.4 1.2-2.6 2.6-2.6h31.6c1.4 0 2.6 1.2 2.6 2.6zm.1-80v1 42.6c0 1.4-1.2 2.6-2.6 2.6h-31.6c-1.4 0-2.6-1.2-2.6-2.6v-5.3-.2c0-.3.1-.7.2-1 .1-.1.1-.1.2-.3.1-.1.1-.2.2-.3s.2-.3.3-.4c4-5.8 22.2-28.2 29.9-37.6l.8-.9c.6-.7 1.4-1.1 2.3-1.1 1.4 0 2.6 1.1 2.9 2.4zm48.2 153c0 1.4-1.2 2.6-2.6 2.6h-31.6c-1.4 0-2.6-1.2-2.6-2.6v-19.8c0-1.4 1.2-2.6 2.6-2.6h31.6c1.4 0 2.6 1.2 2.6 2.6zm0-36.5c0 1.4-1.2 2.6-2.6 2.6h-31.6c-1.4 0-2.6-1.2-2.6-2.6v-19.8c0-1.4 1.2-2.6 2.6-2.6h31.6c1.4 0 2.6 1.1 2.6 2.6zm0-36.5c0 1.4-1.2 2.6-2.6 2.6h-31.6c-1.4 0-2.6-1.2-2.6-2.6v-19.8c0-1.4 1.2-2.6 2.6-2.6h31.6c1.4 0 2.6 1.2 2.6 2.6zm0-36.5c0 1.4-1.2 2.6-2.6 2.6h-31.6c-1.4 0-2.6-1.2-2.6-2.6v-19.8c0-1.4 1.2-2.6 2.6-2.6h31.6c1.4 0 2.6 1.2 2.6 2.6zm0-36.5c0 1.4-1.2 2.6-2.6 2.6h-31.6c-1.4 0-2.6-1.2-2.6-2.6v-19.8c0-1.4 1.2-2.6 2.6-2.6h31.6c1.4 0 2.6 1.2 2.6 2.6z"/></g></svg>